<mxfile host="app.diagrams.net" modified="2020-08-01T16:41:59.338Z" agent="5.0 (Windows NT 10.0; Win64; x64) AppleWebKit/537.36 (KHTML, like Gecko) Chrome/84.0.4147.105 Safari/537.36" etag="rym_uusQZbPVz4DFr0S3" version="13.5.8" type="github">
  <diagram id="C5RBs43oDa-KdzZeNtuy" name="Page-1">
    <mxGraphModel dx="1038" dy="548" grid="0" gridSize="10" guides="1" tooltips="1" connect="1" arrows="1" fold="1" page="1" pageScale="1" pageWidth="827" pageHeight="1169" math="0" shadow="0">
      <root>
        <mxCell id="WIyWlLk6GJQsqaUBKTNV-0" />
        <mxCell id="WIyWlLk6GJQsqaUBKTNV-1" parent="WIyWlLk6GJQsqaUBKTNV-0" />
        <mxCell id="WIyWlLk6GJQsqaUBKTNV-2" value="" style="rounded=0;html=1;jettySize=auto;orthogonalLoop=1;fontSize=11;endArrow=block;endFill=0;endSize=8;strokeWidth=1;shadow=0;labelBackgroundColor=none;edgeStyle=orthogonalEdgeStyle;" parent="WIyWlLk6GJQsqaUBKTNV-1" source="WIyWlLk6GJQsqaUBKTNV-3" target="WIyWlLk6GJQsqaUBKTNV-6" edge="1">
          <mxGeometry relative="1" as="geometry" />
        </mxCell>
        <mxCell id="WIyWlLk6GJQsqaUBKTNV-3" value="START" style="rounded=1;whiteSpace=wrap;html=1;fontSize=12;glass=0;strokeWidth=1;shadow=0;" parent="WIyWlLk6GJQsqaUBKTNV-1" vertex="1">
          <mxGeometry x="119" y="12" width="120" height="40" as="geometry" />
        </mxCell>
        <mxCell id="WIyWlLk6GJQsqaUBKTNV-4" value="Yes" style="rounded=0;html=1;jettySize=auto;orthogonalLoop=1;fontSize=11;endArrow=block;endFill=0;endSize=8;strokeWidth=1;shadow=0;labelBackgroundColor=none;edgeStyle=orthogonalEdgeStyle;" parent="WIyWlLk6GJQsqaUBKTNV-1" source="WIyWlLk6GJQsqaUBKTNV-6" edge="1">
          <mxGeometry y="20" relative="1" as="geometry">
            <mxPoint as="offset" />
            <mxPoint x="179" y="270" as="targetPoint" />
          </mxGeometry>
        </mxCell>
        <mxCell id="KyEdge_ipAJDvcWbIshJ-1" style="edgeStyle=orthogonalEdgeStyle;rounded=0;orthogonalLoop=1;jettySize=auto;html=1;exitX=1;exitY=0.5;exitDx=0;exitDy=0;" edge="1" parent="WIyWlLk6GJQsqaUBKTNV-1" source="WIyWlLk6GJQsqaUBKTNV-6">
          <mxGeometry relative="1" as="geometry">
            <mxPoint x="180" y="120" as="targetPoint" />
            <Array as="points">
              <mxPoint x="289" y="175" />
              <mxPoint x="289" y="92" />
              <mxPoint x="180" y="92" />
            </Array>
          </mxGeometry>
        </mxCell>
        <mxCell id="WIyWlLk6GJQsqaUBKTNV-6" value="Tín hiệu từ phao Bể chứa" style="rhombus;whiteSpace=wrap;html=1;shadow=0;fontFamily=Helvetica;fontSize=12;align=center;strokeWidth=1;spacing=6;spacingTop=-4;" parent="WIyWlLk6GJQsqaUBKTNV-1" vertex="1">
          <mxGeometry x="122" y="128" width="114" height="93" as="geometry" />
        </mxCell>
        <mxCell id="KyEdge_ipAJDvcWbIshJ-2" value="No" style="text;html=1;strokeColor=none;fillColor=none;align=center;verticalAlign=middle;whiteSpace=wrap;rounded=0;" vertex="1" parent="WIyWlLk6GJQsqaUBKTNV-1">
          <mxGeometry x="242" y="146" width="40" height="20" as="geometry" />
        </mxCell>
        <mxCell id="KyEdge_ipAJDvcWbIshJ-5" style="edgeStyle=orthogonalEdgeStyle;rounded=0;orthogonalLoop=1;jettySize=auto;html=1;exitX=0.5;exitY=1;exitDx=0;exitDy=0;entryX=0.5;entryY=0;entryDx=0;entryDy=0;" edge="1" parent="WIyWlLk6GJQsqaUBKTNV-1" source="KyEdge_ipAJDvcWbIshJ-3" target="KyEdge_ipAJDvcWbIshJ-4">
          <mxGeometry relative="1" as="geometry" />
        </mxCell>
        <mxCell id="KyEdge_ipAJDvcWbIshJ-3" value="Bể chắn rác hoạt động" style="rounded=1;whiteSpace=wrap;html=1;" vertex="1" parent="WIyWlLk6GJQsqaUBKTNV-1">
          <mxGeometry x="119" y="269" width="120" height="60" as="geometry" />
        </mxCell>
        <mxCell id="KyEdge_ipAJDvcWbIshJ-7" style="edgeStyle=orthogonalEdgeStyle;rounded=0;orthogonalLoop=1;jettySize=auto;html=1;exitX=0.5;exitY=1;exitDx=0;exitDy=0;entryX=0.5;entryY=0;entryDx=0;entryDy=0;" edge="1" parent="WIyWlLk6GJQsqaUBKTNV-1" source="KyEdge_ipAJDvcWbIshJ-4" target="KyEdge_ipAJDvcWbIshJ-6">
          <mxGeometry relative="1" as="geometry" />
        </mxCell>
        <mxCell id="KyEdge_ipAJDvcWbIshJ-4" value="Bể&amp;nbsp; điều hòa hoạt động" style="rounded=1;whiteSpace=wrap;html=1;" vertex="1" parent="WIyWlLk6GJQsqaUBKTNV-1">
          <mxGeometry x="119" y="377" width="120" height="60" as="geometry" />
        </mxCell>
        <mxCell id="KyEdge_ipAJDvcWbIshJ-9" style="edgeStyle=orthogonalEdgeStyle;rounded=0;orthogonalLoop=1;jettySize=auto;html=1;exitX=0.5;exitY=1;exitDx=0;exitDy=0;entryX=0.5;entryY=0;entryDx=0;entryDy=0;" edge="1" parent="WIyWlLk6GJQsqaUBKTNV-1" source="KyEdge_ipAJDvcWbIshJ-6" target="KyEdge_ipAJDvcWbIshJ-8">
          <mxGeometry relative="1" as="geometry" />
        </mxCell>
        <mxCell id="KyEdge_ipAJDvcWbIshJ-6" value="Bể khử Nito hoạt động" style="rounded=1;whiteSpace=wrap;html=1;" vertex="1" parent="WIyWlLk6GJQsqaUBKTNV-1">
          <mxGeometry x="119" y="481" width="120" height="60" as="geometry" />
        </mxCell>
        <mxCell id="KyEdge_ipAJDvcWbIshJ-11" style="edgeStyle=orthogonalEdgeStyle;rounded=0;orthogonalLoop=1;jettySize=auto;html=1;exitX=0.5;exitY=1;exitDx=0;exitDy=0;entryX=0.5;entryY=0;entryDx=0;entryDy=0;" edge="1" parent="WIyWlLk6GJQsqaUBKTNV-1" source="KyEdge_ipAJDvcWbIshJ-8" target="KyEdge_ipAJDvcWbIshJ-10">
          <mxGeometry relative="1" as="geometry" />
        </mxCell>
        <mxCell id="KyEdge_ipAJDvcWbIshJ-8" value="Bể trung hòa pH hoạt động" style="rounded=1;whiteSpace=wrap;html=1;" vertex="1" parent="WIyWlLk6GJQsqaUBKTNV-1">
          <mxGeometry x="119" y="591" width="120" height="60" as="geometry" />
        </mxCell>
        <mxCell id="KyEdge_ipAJDvcWbIshJ-13" style="edgeStyle=orthogonalEdgeStyle;rounded=0;orthogonalLoop=1;jettySize=auto;html=1;exitX=0.5;exitY=1;exitDx=0;exitDy=0;entryX=0.5;entryY=0;entryDx=0;entryDy=0;" edge="1" parent="WIyWlLk6GJQsqaUBKTNV-1" source="KyEdge_ipAJDvcWbIshJ-10" target="KyEdge_ipAJDvcWbIshJ-12">
          <mxGeometry relative="1" as="geometry" />
        </mxCell>
        <mxCell id="KyEdge_ipAJDvcWbIshJ-10" value="Bể MBR hoạt động" style="rounded=1;whiteSpace=wrap;html=1;" vertex="1" parent="WIyWlLk6GJQsqaUBKTNV-1">
          <mxGeometry x="119" y="683" width="120" height="60" as="geometry" />
        </mxCell>
        <mxCell id="KyEdge_ipAJDvcWbIshJ-15" style="edgeStyle=orthogonalEdgeStyle;rounded=0;orthogonalLoop=1;jettySize=auto;html=1;exitX=0.5;exitY=1;exitDx=0;exitDy=0;entryX=0.5;entryY=0;entryDx=0;entryDy=0;" edge="1" parent="WIyWlLk6GJQsqaUBKTNV-1" source="KyEdge_ipAJDvcWbIshJ-12" target="KyEdge_ipAJDvcWbIshJ-14">
          <mxGeometry relative="1" as="geometry" />
        </mxCell>
        <mxCell id="KyEdge_ipAJDvcWbIshJ-12" value="Bể khử trùng hoạt động" style="rounded=1;whiteSpace=wrap;html=1;" vertex="1" parent="WIyWlLk6GJQsqaUBKTNV-1">
          <mxGeometry x="116" y="775" width="120" height="60" as="geometry" />
        </mxCell>
        <mxCell id="KyEdge_ipAJDvcWbIshJ-14" value="Bể chứa nước cuối hoạt động" style="rounded=1;whiteSpace=wrap;html=1;" vertex="1" parent="WIyWlLk6GJQsqaUBKTNV-1">
          <mxGeometry x="119" y="867" width="120" height="60" as="geometry" />
        </mxCell>
      </root>
    </mxGraphModel>
  </diagram>
</mxfile>
